<svg id="Layer_1" data-name="Layer 1" xmlns="http://www.w3.org/2000/svg" xmlns:xlink="http://www.w3.org/1999/xlink" viewBox="0 0 1273.384 385.316">
  <defs>
    <clipPath id="clip-path" transform="translate(2.84 -340.457)">
      <path id="Feng" d="M1249.807,518.692a2.3,2.3,0,0,0-1.375-1.375q-2.142-1.216-3.363,1.223-7.95,18.339-16.5,35.3a198.231,198.231,0,0,1-19.56,31.327q3.668-16.8,8.252-35.759t8.4-35.912q3.818-16.963,6.112-29.341t1.681-15.74q-.615-4.276-6.112-5.5a36.614,36.614,0,0,0-11.614-.611,46.494,46.494,0,0,0-10.85,2.292q-4.741,1.683-3.82,2.6a7.655,7.655,0,0,1,.611,3.362,20.054,20.054,0,0,0-6.571-6.113q-4.127-2.443-10.85-2.445a56.644,56.644,0,0,0-7.947.611,29.844,29.844,0,0,0-8.71,2.751,41.639,41.639,0,0,0-9.017,6.113,63.839,63.839,0,0,0-9.474,10.7,105.932,105.932,0,0,0-9.781,17.421,121.623,121.623,0,0,0-7.335,21.241c-.6,2.446-1.108,4.9-1.535,7.355q-2.139,4.427-5.033,9.76-2.907,5.352-5.96,10.851-7.335,12.226-11.92,19.1t-6.57,7.489q-1.992.615-1.529-5.349a179.1,179.1,0,0,1,3.209-19.408q1.834-9.168,3.667-19.713t2.751-20.936a184.2,184.2,0,0,0,.765-19.254,63.439,63.439,0,0,0-1.682-14.671,24.236,24.236,0,0,0-3.514-7.488,17.962,17.962,0,0,0-5.349-5.043,12.687,12.687,0,0,0-13.141,0,36.074,36.074,0,0,0-11,9.627,89.946,89.946,0,0,0-8.864,13.907,129.019,129.019,0,0,0-7.029,16.2q-3.06,8.56-5.808,16.2-2.448,7.644-4.737,14.364t-4.126,12.837q2.134-11,4.891-23.228t5.195-22.922q2.443-10.695,3.82-19.255t.459-12.226a8.112,8.112,0,0,0-6.113-5.959,31.107,31.107,0,0,0-10.238-1.07,38.687,38.687,0,0,0-9.628,1.681q-4.284,1.376-3.973,2.292a59.962,59.962,0,0,1,1.529,16.81,197.16,197.16,0,0,1-1.834,20.782q-1.534,11-3.668,22.465c-.172.923-.335,1.817-.5,2.725a69.478,69.478,0,0,1-8.053,18.363A109.362,109.362,0,0,1,1002.4,565q-11,10.394-18.184,10.85t-10.392-5.655q-3.208-6.11-2.751-16.962A90.582,90.582,0,0,1,975.2,530.46q14.362-4.886,26.285-22.923a71.686,71.686,0,0,0,5.807-10.086,72.788,72.788,0,0,0,3.973-10.391,45.462,45.462,0,0,0,1.834-8.252,15.758,15.758,0,0,0-.917-8.252q-3.058-6.418-7.03-7.488a17.572,17.572,0,0,0-6.418-.764,36.995,36.995,0,0,0-17.88,7.64,70.009,70.009,0,0,0-15.128,16.2,105.489,105.489,0,0,0-11.308,21.547,109.038,109.038,0,0,0-5,16.527,19.241,19.241,0,0,1-2.8.283,72.426,72.426,0,0,1-11-.611q-6.269-.761-13.753-2.292t-14.823-3.363q-7.035-1.526-14.06-3.056t-14.058-2.75l1.834-18.033q1.524-16.806,3.361-32.091a179.236,179.236,0,0,1,5.2-27.2,84.076,84.076,0,0,1,2.9-8.406,42.561,42.561,0,0,1,5.348-9.627,35.253,35.253,0,0,1,8.1-7.946,19.288,19.288,0,0,1,11.461-3.362,3.479,3.479,0,0,0,2.292-.917,2.751,2.751,0,0,0,1.069-2.14c0-2.034-.916-3.056-2.75-3.056h-.306q-30.875,0-45.539,12.836a37.254,37.254,0,0,0-8.863,12.226,88.007,88.007,0,0,0-4.279,12.225A220.677,220.677,0,0,0,852.95,467.5q-2.144,17.12-4.279,36.369l-.917,6.725q-12.227.916-19.255,6.723-9.476,7.644-9.475,23.229,0,3.058,3.057,3.056c2.034,0,3.057-1.017,3.057-3.056q0-12.53,7.335-18.644a29.328,29.328,0,0,1,14.67-5.2q-2.751,23.231-6.572,46.456a235.549,235.549,0,0,1-10.849,42.484q-17.12,44.619-52.874,47.677a15.075,15.075,0,0,1-2.9.306h-2.9a53.9,53.9,0,0,1-17.421-2.9,42.379,42.379,0,0,1-14.975-8.71,39.065,39.065,0,0,1-9.934-14.366,45.351,45.351,0,0,1-2.9-19.866,39.408,39.408,0,0,1,5.2-17.879,48.3,48.3,0,0,1,11.155-13.142,45.766,45.766,0,0,1,14.212-7.947,44.808,44.808,0,0,1,14.364-2.6q11.613,0,17.728,6.112,7.335,7.337,6.418,20.478,0,3.051,3.057,3.056a2.7,2.7,0,0,0,3.055-3.056q.918-15.888-7.946-24.756-8.561-7.946-22.006-7.948a51.764,51.764,0,0,0-17.727,3.21,49.832,49.832,0,0,0-15.892,9.322,54,54,0,0,0-12.531,16.046,48.1,48.1,0,0,0-5.2,19.1q-.616,12.837,3.515,22.617a44.566,44.566,0,0,0,11.309,16.2,49.6,49.6,0,0,0,16.657,9.78,58.078,58.078,0,0,0,19.559,3.362h3.21a16.671,16.671,0,0,0,3.209-.3q29.341-1.834,49.818-16.5,19.556-13.453,31.786-40.038a197.118,197.118,0,0,0,12.531-40.65q4.276-21.7,6.724-43.705,7.026,1.224,13.906,2.751t13.906,3.056q9.17,1.833,17.115,3.514t14.671,2.446a52.953,52.953,0,0,0,10.649.247c-.033.223-.074.446-.106.67a74.571,74.571,0,0,0,0,22.311,37.829,37.829,0,0,0,7.488,17.879q5.8,7.336,12.379,9.78a24.8,24.8,0,0,0,13.294,1.223,39.264,39.264,0,0,0,13.142-5.043,60.792,60.792,0,0,0,11.92-9.321,94.526,94.526,0,0,0,14.458-18.243q-1.381,8.724-1.93,15.644-.609,7.794.917,11.768,1.226,3.058,5.2,4.126a36.4,36.4,0,0,0,8.252,1.222,33.54,33.54,0,0,0,7.488-.459c2.139-.406,3.1-.811,2.9-1.222a15.475,15.475,0,0,1-1.528-7.03.881.881,0,0,1,.306-.611q2.135-7.637,4.584-16.2,2.135-7.336,4.89-16.657t6.113-19.408q1.525-4.277,4.89-13.142a177.367,177.367,0,0,1,7.794-17.574,107.28,107.28,0,0,1,9.169-15.129q4.734-6.418,8.71-5.5,2.444.615,1.987,7.029a153.808,153.808,0,0,1-2.293,16.352q-1.832,9.936-3.972,22t-3.515,23.381a137.726,137.726,0,0,0-1.07,20.936q.3,9.627,3.973,14.517,5.193,7.335,11.615,8.252t12.835-7.335a106.818,106.818,0,0,0,8.1-11.308q3.817-6.109,7.183-12.226,3.051-5.271,5.594-10.293c-.039.782-.074,1.564-.1,2.347a54.862,54.862,0,0,0,3.055,20.477q5.195,15.288,18.033,18.644a16.849,16.849,0,0,0,9.474-.306,36.1,36.1,0,0,0,8.252-3.362q9.471-5.8,18.032-21.088l3.21-6.419q1.677-3.358,3.209-7.029-3.058,18.036-5.96,34.842t-5.348,29.646q-4.284,2.751-9.017,5.654t-9.627,5.655a47.564,47.564,0,0,0-11,7.488,30.774,30.774,0,0,0-5.806,7.182,16.508,16.508,0,0,0-2.14,10.7,12.539,12.539,0,0,0,6.877,10.239,25.7,25.7,0,0,0,12.683,3.515q12.837,0,20.172-5.043a35.57,35.57,0,0,0,11.461-12.837,65.727,65.727,0,0,0,6.113-17.115q1.985-9.327,3.82-18.185.609-2.751,1.223-5.5t1.222-5.806a139.8,139.8,0,0,0,23.992-34.079q9.627-19.1,18.8-39.884A1.982,1.982,0,0,0,1249.807,518.692ZM988.038,495.923q8.251-17.112,13.295-21.853t6.571-1.375q1.526,3.366-.917,12.532a73.949,73.949,0,0,1-9.169,19.865q-2.751,3.668-8.1,9.78a40.1,40.1,0,0,1-12.99,9.78A115.645,115.645,0,0,1,988.038,495.923Zm183.985,149.76q-5.809,8.253-12.225,7.946-5.81,0-8.863-2.9a8.6,8.6,0,0,1-2.751-7.183q.3-4.283,4.432-9.321t12.378-9.627q3.359-2.143,7.335-4.28a64.935,64.935,0,0,0,7.335-4.585Q1177.83,637.429,1172.023,645.683Zm27.355-147.62q-1.075,8.56-2.6,18.337-5.2,22.007-13.447,37.441T1165.3,574.776q-7.644,4.586-10.545,1.07t-3.209-10.544a77.517,77.517,0,0,1,1.07-15.587q1.374-8.553,2.9-14.671.917-4.586,3.972-14.67t7.336-20.936a134.155,134.155,0,0,1,9.474-19.561q5.195-8.711,10.391-10.544a8.334,8.334,0,0,1,9.169,1.987q3.97,3.825,5.2,11.766Q1200.441,489.5,1199.378,498.063Z" fill="none"/>
    </clipPath>
    <clipPath id="clip-path-2" transform="translate(2.84 -340.457)">
      <path id="F1" d="M764.316,464.443a.615.615,0,0,0,.459-.153.624.624,0,0,1,.458-.153q3.053-1.216,1.834-3.973-7.95-22.923-7.335-41.26t9.781-31.175q8.552-11.611,23.381-17.879t34.077-5.96a170.155,170.155,0,0,1,37.44,5.043q19.405,4.741,38.662,10.544,20.172,6.119,38.969,10.7a130.1,130.1,0,0,0,35.605,3.973q18.639-.3,31.175-8.557,14.054-8.86,22.923-27.813,1.526-2.751-1.528-3.973-2.751-1.218-3.974,1.529-4.893,10.7-18.8,15.128T974.592,375.2a301.245,301.245,0,0,1-40.65-2.292q-21.7-2.594-42.33-5.96t-37.745-6.113a225.3,225.3,0,0,0-26.9-3.056q-20.48-.3-36.676,6.572t-25.673,19.713q-9.784,13.753-11,32.4-.916,20.48,7.641,45.845A3.138,3.138,0,0,0,764.316,464.443Z" fill="none"/>
    </clipPath>
    <clipPath id="clip-path-3" transform="translate(2.84 -340.457)">
      <path id="unny" d="M658.42,518.692a2.3,2.3,0,0,0-1.375-1.375q-2.142-1.216-3.361,1.223-7.951,18.339-16.5,35.3a198.231,198.231,0,0,1-19.56,31.327q3.666-16.8,8.252-35.759t8.4-35.912q3.819-16.963,6.113-29.341t1.681-15.74q-.616-4.276-6.112-5.5a36.621,36.621,0,0,0-11.615-.611,46.5,46.5,0,0,0-10.849,2.292q-4.743,1.683-3.821,2.6.609.916.458,5.348T609.367,484q-.616,7.035-1.834,16.2t-2.751,19.561q-5.81,12.534-10.85,22.158t-9.322,16.351a109.85,109.85,0,0,1-9.474,13.295q-3.669,4.125-5.655,5.043a1.773,1.773,0,0,1-2.75-1.07,15.2,15.2,0,0,1-.764-5.349,48.079,48.079,0,0,1,.611-7.335q.609-3.967,1.223-7.335a155.524,155.524,0,0,1,6.265-23.686q4.427-12.987,9.016-25.215t7.794-22q3.208-9.779,2.6-14.365a7.556,7.556,0,0,0-5.5-6.571,27.705,27.705,0,0,0-10.544-1.375,47.96,47.96,0,0,0-10.086,1.528q-4.434,1.224-4.126,1.834,1.525,5.5,0,16.656t-3.973,23.992q-1.187,6.214-2.331,12.354c-1.56,3.492-3.025,6.667-4.39,9.5q-2.142,4.434-5.043,9.78t-5.96,10.851q-7.335,12.226-11.919,19.1t-6.572,7.489q-1.99.615-1.528-5.349a179.1,179.1,0,0,1,3.209-19.408q1.835-9.168,3.668-19.713t2.75-20.936a184.2,184.2,0,0,0,.765-19.254,63.5,63.5,0,0,0-1.681-14.671,24.261,24.261,0,0,0-3.515-7.488,17.939,17.939,0,0,0-5.349-5.043,12.689,12.689,0,0,0-13.142,0,36.094,36.094,0,0,0-11,9.627,89.946,89.946,0,0,0-8.864,13.907,128.873,128.873,0,0,0-7.029,16.2q-3.058,8.56-5.808,16.2-2.45,7.644-4.737,14.364t-4.126,12.837q2.135-11,4.89-23.228t5.2-22.922q2.443-10.695,3.82-19.255T481,469.027a8.112,8.112,0,0,0-6.113-5.959A31.107,31.107,0,0,0,464.653,462a38.687,38.687,0,0,0-9.628,1.681q-4.284,1.376-3.973,2.292a59.965,59.965,0,0,1,1.528,16.81,196.615,196.615,0,0,1-1.833,20.782q-1.268,9.1-2.952,18.509c-.992,2.172-1.946,4.215-2.853,6.1q-2.142,4.434-5.043,9.78t-5.96,10.851q-7.335,12.226-11.919,19.1t-6.571,7.489q-1.992.615-1.529-5.349a179.167,179.167,0,0,1,3.21-19.408q1.833-9.168,3.667-19.713t2.751-20.936a184.189,184.189,0,0,0,.764-19.254,63.5,63.5,0,0,0-1.681-14.671,24.238,24.238,0,0,0-3.515-7.488,17.947,17.947,0,0,0-5.348-5.043,12.69,12.69,0,0,0-13.143,0,36.1,36.1,0,0,0-11,9.627,89.868,89.868,0,0,0-8.863,13.907,128.876,128.876,0,0,0-7.03,16.2q-3.059,8.56-5.807,16.2-2.449,7.644-4.737,14.364t-4.126,12.837q2.135-11,4.89-23.228t5.2-22.922q2.442-10.695,3.82-19.255t.458-12.226a8.11,8.11,0,0,0-6.112-5.959A31.11,31.11,0,0,0,357.073,462a38.679,38.679,0,0,0-9.627,1.681q-4.284,1.376-3.974,2.292A59.928,59.928,0,0,1,345,482.781a196.615,196.615,0,0,1-1.833,20.782q-1.29,9.263-3.015,18.856-10.8,23.141-18.986,35.853a109.946,109.946,0,0,1-9.475,13.295q-3.667,4.125-5.654,5.043a1.774,1.774,0,0,1-2.751-1.07,15.2,15.2,0,0,1-.764-5.349,48.079,48.079,0,0,1,.611-7.335q.609-3.967,1.222-7.335a155.654,155.654,0,0,1,6.266-23.686q4.427-12.987,9.016-25.215t7.794-22q3.209-9.779,2.6-14.365a7.556,7.556,0,0,0-5.5-6.571,27.7,27.7,0,0,0-10.544-1.375,47.97,47.97,0,0,0-10.086,1.528q-4.434,1.224-4.126,1.834a28.673,28.673,0,0,1,.458,9.321q-.458,5.959-1.528,13.449t-2.75,15.739q-1.683,8.253-3.209,16.5-5.5,12.227-10.392,21.547t-9.169,16.045a109.962,109.962,0,0,1-9.474,13.295q-3.669,4.125-5.655,5.043a1.773,1.773,0,0,1-2.75-1.07,15.2,15.2,0,0,1-.764-5.349,48.079,48.079,0,0,1,.611-7.335q.609-3.967,1.223-7.335a155.524,155.524,0,0,1,6.265-23.686q4.427-12.987,9.016-25.215t7.794-22q3.209-9.779,2.6-14.365a7.554,7.554,0,0,0-5.5-6.571A27.705,27.705,0,0,0,266,462.3a47.96,47.96,0,0,0-10.086,1.528q-4.434,1.224-4.126,1.834,1.525,5.5,0,16.656t-3.974,23.992q-2.448,12.837-4.737,25.368a119.69,119.69,0,0,0-2.292,20.783q0,5.809.459,11.156a36.217,36.217,0,0,0,1.986,9.475,16.91,16.91,0,0,0,4.126,6.57,8.639,8.639,0,0,0,6.877,2.14q6.111-.3,11.614-5.96t12.225-16.657q2.751-4.584,5.655-9.933t6.265-11.767q-.616,4.284-.917,8.1t-.305,6.877q0,5.809.458,11.156a36.015,36.015,0,0,0,1.986,9.475,16.853,16.853,0,0,0,4.126,6.57,8.639,8.639,0,0,0,6.877,2.14q6.111-.3,11.614-5.96t12.226-16.657q5.3-8.375,10.98-19.53c-.472,2.7-.929,5.351-1.357,7.916q-1.675,10.086-2.292,17.879t.916,11.768q1.226,3.058,5.2,4.126a36.418,36.418,0,0,0,8.252,1.222,33.536,33.536,0,0,0,7.488-.459c2.14-.406,3.1-.811,2.9-1.222a15.462,15.462,0,0,1-1.528-7.03.883.883,0,0,1,.305-.611q2.135-7.637,4.585-16.2,2.135-7.336,4.89-16.657t6.112-19.408q1.526-4.277,4.89-13.142a177.367,177.367,0,0,1,7.794-17.574,107.374,107.374,0,0,1,9.169-15.129q4.736-6.418,8.711-5.5,2.442.615,1.986,7.029a154.028,154.028,0,0,1-2.292,16.352q-1.835,9.936-3.973,22t-3.515,23.381a137.589,137.589,0,0,0-1.069,20.936q.3,9.627,3.973,14.517,5.193,7.335,11.613,8.252t12.837-7.335a106.956,106.956,0,0,0,8.1-11.308q3.819-6.109,7.183-12.226,3.358-5.8,6.112-11.307c.28-.56.553-1.093.828-1.633-.56,3.177-1.1,6.278-1.6,9.273q-1.675,10.086-2.292,17.879t.917,11.768q1.226,3.058,5.2,4.126a36.409,36.409,0,0,0,8.252,1.222,33.54,33.54,0,0,0,7.488-.459c2.139-.406,3.1-.811,2.9-1.222a15.462,15.462,0,0,1-1.528-7.03.881.881,0,0,1,.306-.611q2.135-7.637,4.584-16.2,2.135-7.336,4.891-16.657t6.112-19.408q1.525-4.277,4.89-13.142a177.367,177.367,0,0,1,7.794-17.574,107.186,107.186,0,0,1,9.169-15.129q4.734-6.418,8.71-5.5,2.443.615,1.987,7.029a154.29,154.29,0,0,1-2.292,16.352q-1.835,9.936-3.973,22t-3.516,23.381a137.847,137.847,0,0,0-1.069,20.936q.3,9.627,3.973,14.517,5.193,7.335,11.614,8.252t12.837-7.335a106.956,106.956,0,0,0,8.1-11.308q3.818-6.109,7.182-12.226,3.36-5.8,6.113-11.307c.763-1.526,1.5-2.963,2.23-4.347a108.263,108.263,0,0,0-1.622,16.877q0,5.809.459,11.156a36.258,36.258,0,0,0,1.986,9.475,16.91,16.91,0,0,0,4.126,6.57,8.639,8.639,0,0,0,6.877,2.14q6.111-.3,11.614-5.96T589.5,559.189q3.053-4.584,6.113-10.239t6.418-12.683q-3.058,19.87-6.571,39.121T589.5,608.7q-4.283,2.751-9.016,5.654t-9.627,5.655a47.542,47.542,0,0,0-11,7.488,30.808,30.808,0,0,0-5.807,7.182,16.969,16.969,0,0,0-2.139,6.113,17.327,17.327,0,0,0,0,4.584,12.559,12.559,0,0,0,6.876,10.239,25.7,25.7,0,0,0,12.684,3.515q12.837,0,20.172-5.043A35.561,35.561,0,0,0,603.1,641.251a65.727,65.727,0,0,0,6.113-17.115q1.984-9.327,3.82-18.185.609-2.751,1.223-5.5t1.222-5.806a139.8,139.8,0,0,0,23.992-34.079q9.629-19.1,18.8-39.884A1.977,1.977,0,0,0,658.42,518.692ZM580.637,645.683q-5.809,8.253-12.225,7.946-5.81,0-8.864-2.9a8.592,8.592,0,0,1-2.75-7.183q.3-4.283,4.431-9.321t12.378-9.627q3.36-2.143,7.336-4.28a65.114,65.114,0,0,0,7.335-4.585Q586.443,637.429,580.637,645.683Z" fill="none"/>
    </clipPath>
    <clipPath id="clip-path-4" transform="translate(2.84 -340.457)">
      <path id="S" d="M278.991,375.5a26.7,26.7,0,0,1,4.585,14.823,34.676,34.676,0,0,1-3.515,15.129,42.094,42.094,0,0,1-10.239,13.295,49.216,49.216,0,0,1-15.892,9.322,108.41,108.41,0,0,1-37.287,7.03,110.926,110.926,0,0,1-19.867-1.834,180.737,180.737,0,0,0,3.209,26.131q2.593,13.294,5.96,27.048,3.36,14.672,6.419,29.8a205.234,205.234,0,0,1,3.82,30.1,146.084,146.084,0,0,1-1.528,29.8,100.018,100.018,0,0,1-9.628,29.5,85.236,85.236,0,0,1-19.713,25.825,114.64,114.64,0,0,1-73.5,29.341A167.755,167.755,0,0,1,67.8,656.686q-24.455-5.81-37.592-22.922a51.985,51.985,0,0,1-8.558-17.117,60.8,60.8,0,0,1-2.139-20.476,87.566,87.566,0,0,1,3.82-20.783,100.386,100.386,0,0,1,9.016-20.478,97.108,97.108,0,0,1,11.462-16.5,112.616,112.616,0,0,1,13.6-13.448q15.888-12.837,33.62-15.587a51.656,51.656,0,0,1,18.949.458,54.389,54.389,0,0,1,17.421,6.877q18.338,11.311,17.421,30.869a2.753,2.753,0,0,1-1.07,2.14,5.609,5.609,0,0,1-2.292,1.222,3.147,3.147,0,0,1-2.445-.306c-.612-.4-.717-1.117-.306-2.139a23.889,23.889,0,0,0-3.515-14.671,35.83,35.83,0,0,0-12.072-11.614,52.858,52.858,0,0,0-15.587-6.265,39.472,39.472,0,0,0-16.5-.459q-15.588,2.142-29.647,13.143a91.193,91.193,0,0,0-23.533,28.118q-11.619,20.171-12.225,39.733T35.4,629.484a54.977,54.977,0,0,0,20.172,16.352,74.492,74.492,0,0,0,25.368,6.877,94.935,94.935,0,0,0,27.66-1.682,110.55,110.55,0,0,0,26.9-9.169,97.093,97.093,0,0,0,23.075-15.892,76.07,76.07,0,0,0,16.5-21.853A96.119,96.119,0,0,0,183.94,576a137.161,137.161,0,0,0,1.222-28.883,222.716,222.716,0,0,0-3.82-29.187q-2.909-14.671-5.96-29.035-3.977-16.806-7.029-32.7a150.333,150.333,0,0,1-2.751-31.48q-7.035-2.751-14.518-5.807t-14.517-6.113q-14.67-6.719-28.577-11.919a75.6,75.6,0,0,0-26.437-5.2q-33.316,0-49.818,23.533a45.16,45.16,0,0,0-6.724,12.073,99.2,99.2,0,0,0-3.973,13.6,59.743,59.743,0,0,0-.306,10.392q.3,4.893,1.834,7.335a2.887,2.887,0,0,1,.306,2.292,2.792,2.792,0,0,1-1.529,1.987,3.318,3.318,0,0,1-2.445.764,2.439,2.439,0,0,1-1.834-1.069,21.649,21.649,0,0,1-2.444-8.711,47.883,47.883,0,0,1,.458-12.531,75.346,75.346,0,0,1,3.82-14.365,64.145,64.145,0,0,1,7.641-14.517,74.188,74.188,0,0,1,8.253-9.322,59.822,59.822,0,0,1,11.766-8.711,67.191,67.191,0,0,1,15.74-6.418,77.358,77.358,0,0,1,20.477-2.445,78.348,78.348,0,0,1,27.66,5.349q14.212,5.351,29.494,12.072l12.836,5.5q6.419,2.751,13.143,5.2A84.52,84.52,0,0,1,172.02,391.7a60.686,60.686,0,0,1,24.451-28.424,49.323,49.323,0,0,1,14.823-6.266,68.448,68.448,0,0,1,16.351-1.986q5.8,0,13.448.764a68.983,68.983,0,0,1,16.2,3.82Q272.879,364.5,278.991,375.5Zm-4.89,29.035a28.416,28.416,0,0,0,2.9-12.989,25.593,25.593,0,0,0-3.515-12.378,26.781,26.781,0,0,0-15.74-12.99,41.659,41.659,0,0,0-20.936-1.069,50.334,50.334,0,0,0-20.324,9.322,42.885,42.885,0,0,0-14.212,18.185,65.9,65.9,0,0,0-4.585,16.656,166.786,166.786,0,0,0-1.528,17.574,126.522,126.522,0,0,0,27.813,1.834,96.227,96.227,0,0,0,29.035-6.113Q267.374,417.071,274.1,404.539Z" fill="none"/>
    </clipPath>
  </defs>
  <g id="Feng-Clip">
    <g clip-path="url(#clip-path)">
      <path id="G2-Path" d="M1213.5,497.5l-24,131s-2,21-18,25-17,2-17,2-11-5-11-10,11-17,11-17l35-22,22-20,20-32,19-42" transform="translate(2.84 -340.457)" fill="none" stroke="#000" stroke-miterlimit="10" stroke-width="44"/>
      <path id="G1-Path" d="M1177.5,466.5s-33,55-35,68-5,22-2,30,5,13,8,13c2,5,8,3,8,3,3,2,5-2,8-2s15-14,15-14l16-30,18-37,8-44" transform="translate(2.84 -340.457)" fill="none" stroke="#000" stroke-miterlimit="10" stroke-width="44"/>
      <path id="N3-Path" d="M1039.5,514.5c-2,12-10,61-10,61s12-15,17-25,19-57,19-57l16-25s8-5,15,0-3,63-3,63-8,31-3,41,2,6,7,7,7-4,7-4l27-41,25-49s17-19,21-19,8-1,11,0,8,2,8,2l5,7" transform="translate(2.84 -340.457)" fill="none" stroke="#000" stroke-miterlimit="10" stroke-width="44"/>
      <path id="E-Path" d="M821.5,552.5s-2.218-18.889,1.891-29.445S859.186,512,859.186,512L929.5,526.5s35,3,43,1l8-2s8,0,18-16,10-22,10-22l3-11s-1-10-5-10-5-4-19,10-20,39-20,39-15,48-4,56,4,5,11,8,20-2,20-2,24-26,30-37,16-27,16-27l6-61" transform="translate(2.84 -340.457)" fill="none" stroke="#000" stroke-miterlimit="10" stroke-width="44"/>
      <path id="F2-Path" d="M934.5,399.5s-31,0-49,9-29,128-29,128-7,85-24,95-16,16-39,22a113.578,113.578,0,0,1-42,3s-20-12-28-26,1-42,1-42,18.657-24.663,32.328-26.331S790.5,569.5,790.5,569.5s13,20,10,23-6,9-6,9" transform="translate(2.84 -340.457)" fill="none" stroke="#000" stroke-miterlimit="10" stroke-width="44"/>
    </g>
  </g>
  <g id="F1-Clip">
    <g clip-path="url(#clip-path-2)">
      <path id="F1-Path" d="M772.5,476.5s-15-27-15-46,1-35,7-46,32.207-24.85,47.6-25.925S899.5,372.5,899.5,372.5s45,13,61,14,32-4,32-4,18-3,25-10,18-25,18-25" transform="translate(2.84 -340.457)" fill="none" stroke="#000" stroke-miterlimit="10" stroke-width="27"/>
    </g>
  </g>
  <g id="unny-Clip">
    <g clip-path="url(#clip-path-3)">
      <path id="Y2-Path" d="M619.5,505.5s-19,120-25,130a81.345,81.345,0,0,1-19,21c-4,3-18-4-18-4s-5-8-4-13,14-15,14-15l37-21,18-21,20-33,18-37" transform="translate(2.84 -340.457)" fill="none" stroke="#000" stroke-miterlimit="10" stroke-width="36"/>
      <path id="Y1-Path" d="M572.5,498.5l-13,72s0,5,3,8,7,1,7,1l12-11,26-47,12-16,8-50" transform="translate(2.84 -340.457)" fill="none" stroke="#000" stroke-miterlimit="10" stroke-width="36"/>
      <path id="N2-Path" d="M464.5,497.5c-3,23-11,90-11,90l16-41s8-35,18-54,17-25,17-25a16.85,16.85,0,0,1,14,1c7,4,3,34,3,34s-16,67-9,72,3,3,7,5,8-4,8-4l31-51s11-22,14-26,9-43,9-43" transform="translate(2.84 -340.457)" fill="none" stroke="#000" stroke-miterlimit="10" stroke-width="36"/>
      <path id="N1-Path" d="M353.5,505.5l-10,81s10-21,18-41,11-28,14-41,18-33,18-33a10.58,10.58,0,0,1,11-6c8,1,9,7,9,7l-9,91s0,18,6,16,0,1,6-2,13-16,13-16,20-39,27-50,2-4,8-14,2-43,2-43" transform="translate(2.84 -340.457)" fill="none" stroke="#000" stroke-miterlimit="10" stroke-width="36"/>
      <path id="UN-Path" d="M308.5,501.5s-15,39-12,62,9,14,13,13,14-17,14-17,25-42,30-54,8-51,8-51" transform="translate(2.84 -340.457)" fill="none" stroke="#000" stroke-miterlimit="10" stroke-width="36"/>
      <path id="U-Path" d="M266.5,453.5s-18,97-19,108,2,15,3,17,3,1,5,1,7-3,10-6,26-44,29-47,5-10,14-25,8-47,8-47" transform="translate(2.84 -340.457)" fill="none" stroke="#000" stroke-miterlimit="10" stroke-width="36"/>
    </g>
  </g>
  <g id="S-Clip">
    <g clip-path="url(#clip-path-4)">
      <path id="S-Path" d="M25.5,477.5l-4-11s-6-14-3-26a60.414,60.414,0,0,1,17-30c9-9,15-13,30-16s30,1,35,2,40,15,40,15l31,12,25,7s22,2,36,0,25-5,35-13,13-21,13-21,2-14-7-23a41.218,41.218,0,0,0-19-11s-15-5-35,3-28,31-28,31-10,22-7,54,12,35,15,59,7,37,4,61-20,48-20,48-10,18-35,28-40,10-40,10-13,3-36-2-32-15-32-15-13-7-17-25,2-34,2-34a86.274,86.274,0,0,1,15-33c12-16,24-24,24-24s19-11,29-12,25,3,32,8,16,16,16,20v11l-2,11" transform="translate(2.84 -340.457)" fill="none" stroke="#000" stroke-miterlimit="10" stroke-width="41"/>
    </g>
  </g>
</svg>
